<svg xmlns="http://www.w3.org/2000/svg" viewBox="0 0 400 200" width="400" height="200">
  <defs>
    <linearGradient id="g1" x1="0%" y1="0%" x2="100%" y2="100%">
      <stop offset="0%" stop-color="#1a1a2e"/>
      <stop offset="100%" stop-color="#16213e"/>
    </linearGradient>
    <linearGradient id="g2" x1="0%" y1="0%" x2="100%" y2="0%">
      <stop offset="0%" stop-color="#e94560"/>
      <stop offset="100%" stop-color="#f5a623"/>
    </linearGradient>
  </defs>

  <!-- 背景 -->
  <rect width="400" height="200" rx="16" fill="#f8f9fa"/>

  <!-- 拼音 DÀO -->
  <text x="115" y="40" font-family="'Arial','Helvetica',sans-serif" font-size="14" fill="#999" text-anchor="middle" letter-spacing="3">DÀO</text>
  <!-- 拼音 FĒI -->
  <text x="285" y="40" font-family="'Arial','Helvetica',sans-serif" font-size="14" fill="#999" text-anchor="middle" letter-spacing="3">FĒI</text>

  <!-- "道" 字路径 (楷体, Y轴翻转) -->
  <g transform="translate(55, 157) scale(0.48, -0.48)">
    <path d="M134 119Q159 123 165.5 126.0Q172 129 176.0 127.0Q180 125 186.5 121.5Q193 118 191.0 114.5Q189 111 187.0 104.5Q185 98 187.0 70.5Q189 43 187.0 36.5Q185 30 180.5 23.5Q176 17 174.0 25.0Q172 33 169 41Q155 41 121 38Q118 22 112.0 32.0Q106 42 108.0 49.5Q110 57 110 81Q110 106 105.5 112.5Q101 119 105.0 119.5Q109 120 113.5 118.5Q118 117 126 118Q133 131 134 143Q118 141 109.0 138.5Q100 136 92.0 141.0Q84 146 95.0 146.5Q106 147 125.5 150.0Q145 153 164.0 157.0Q183 161 194.0 163.0Q205 165 212.5 159.0Q220 153 214.0 151.0Q208 149 187.0 148.5Q166 148 144 145Q151 136 147.5 134.5Q144 133 134 119ZM55 34Q56 48 49.0 61.0Q42 74 46.5 84.5Q51 95 51 98Q51 101 46.0 99.5Q41 98 35.0 96.0Q29 94 21.5 97.0Q14 100 21.5 102.0Q29 104 35.5 106.5Q42 109 47.5 113.0Q53 117 59.0 114.5Q65 112 70.5 107.0Q76 102 69.5 96.5Q63 91 58.0 81.0Q53 71 60.5 60.0Q68 49 63 33Q75 30 94.5 23.0Q114 16 135.5 12.0Q157 8 183.5 6.0Q210 4 233.0 6.5Q256 9 234.0 0.5Q212 -8 196.5 -14.0Q181 -20 144.0 -7.0Q107 6 86.5 15.0Q66 24 51.0 23.0Q36 22 30.5 18.0Q25 14 16.5 20.5Q8 27 18.5 30.0Q29 33 55 34ZM121 71Q137 73 146.0 75.0Q155 77 160.0 73.5Q165 70 153.5 67.5Q142 65 121 66V43Q144 47 153.0 48.5Q162 50 168.0 46.5Q174 43 174 58Q174 73 173.5 92.5Q173 112 170.0 114.5Q167 117 162 117Q157 117 119 111L121 94Q134 96 144.0 99.0Q154 102 159.0 97.5Q164 93 148.0 90.5Q132 88 121 89ZM190 195Q197 191 191.0 187.5Q185 184 173.5 176.0Q162 168 153.5 164.5Q145 161 152.0 168.0Q159 175 165.0 183.0Q171 191 169.0 198.0Q167 205 175.0 202.5Q183 200 190 195ZM44 158Q39 165 36.5 169.0Q34 173 44.5 171.5Q55 170 63.5 166.0Q72 162 71.0 150.5Q70 139 60.0 145.5Q50 152 44 158ZM116 174Q113 180 112.0 185.0Q111 190 117.5 188.0Q124 186 130.0 180.5Q136 175 132.5 166.0Q129 157 124.5 163.0Q120 169 116 174Z" fill="url(#g1)"/>
  </g>

  <!-- "飞" 字路径 -->
  <g transform="translate(220, 157) scale(0.48, -0.48)">
    <path d="M155 113Q169 126 178.5 144.0Q188 162 188 169Q188 177 195.0 173.5Q202 170 208.5 164.0Q215 158 210.0 155.5Q205 153 194.5 142.5Q184 132 163 112Q183 107 193.0 97.5Q203 88 199.5 79.5Q196 71 179.0 85.0Q162 99 142 109Q142 81 145.5 62.5Q149 44 163.5 31.0Q178 18 195.0 15.0Q212 12 215.5 19.5Q219 27 223.0 51.0Q227 75 229.0 46.0Q231 17 237.0 3.0Q243 -11 219.5 -8.5Q196 -6 174.5 5.0Q153 16 141.5 37.5Q130 59 129.0 90.5Q128 122 130.0 143.5Q132 165 129.5 165.5Q127 166 111.0 164.0Q95 162 70.0 157.0Q45 152 38.5 149.5Q32 147 21.0 155.5Q10 164 21.5 163.5Q33 163 54.5 165.5Q76 168 99.0 172.5Q122 177 127.0 181.0Q132 185 140.0 183.0Q148 181 156.5 176.0Q165 171 155.5 164.0Q146 157 143 113Z" fill="url(#g1)"/>
  </g>

  <!-- 底部装饰线 -->
  <line x1="30" y1="175" x2="370" y2="175" stroke="url(#g2)" stroke-width="3" stroke-linecap="round"/>
  <circle cx="30" cy="175" r="4" fill="#e94560"/>
  <circle cx="370" cy="175" r="4" fill="#f5a623"/>
</svg>
